<svg width="9" height="39" viewBox="0 0 9 39" fill="none" xmlns="http://www.w3.org/2000/svg">
<path d="M4.14645 38.3536C4.34171 38.5488 4.65829 38.5488 4.85355 38.3536L8.03553 35.1716C8.2308 34.9763 8.2308 34.6597 8.03553 34.4645C7.84027 34.2692 7.52369 34.2692 7.32843 34.4645L4.5 37.2929L1.67157 34.4645C1.47631 34.2692 1.15973 34.2692 0.964466 34.4645C0.769204 34.6597 0.769204 34.9763 0.964466 35.1716L4.14645 38.3536ZM5 38L5 37.05H4L4 38H5ZM5 35.15L5 33.25H4L4 35.15H5ZM5 31.35L5 29.45H4L4 31.35H5ZM5 27.55L5 25.65H4L4 27.55H5ZM5 23.75L5 21.85H4L4 23.75H5ZM5 19.95L5 18.05H4L4 19.95H5ZM5 16.15L5 14.25H4L4 16.15H5ZM5 12.35L5 10.45H4L4 12.35H5ZM5 8.55L5 6.65H4L4 8.55H5ZM5 4.75L5 2.85H4L4 4.75H5ZM5 0.950001V0H4V0.950001H5Z" fill="black"/>
</svg>
