<svg id="eKLypvFt8b61" xmlns="http://www.w3.org/2000/svg" xmlns:xlink="http://www.w3.org/1999/xlink" viewBox="0 0 100 100" shape-rendering="geometricPrecision" text-rendering="geometricPrecision">
<style><![CDATA[
#eKLypvFt8b62 {animation: eKLypvFt8b62_c_o 6000ms linear infinite normal forwards}@keyframes eKLypvFt8b62_c_o { 0% {opacity: 0} 8.333333% {opacity: 1} 16.666667% {opacity: 0} 25% {opacity: 1} 33.333333% {opacity: 0} 41.666667% {opacity: 1} 50% {opacity: 0} 58.333333% {opacity: 1} 66.666667% {opacity: 0} 75% {opacity: 1} 83.333333% {opacity: 0} 91.666667% {opacity: 1} 100% {opacity: 0}}
]]></style>
<g id="eKLypvFt8b62" transform="matrix(.5 0 0 0.5 25.02418 24.999999)" opacity="0"><path d="M92.5,45c-.1-7.7-3.7-18.5-6.8-22.3-.3-.4-1.1-.2-1.1.3v52.9c0,.9.8,1.6,1.8,1.6.9,0,1.6-.5,1.8-1.3l.1-.5c.2-.7.2-1.5.2-2.2L88,58.4c2.4-1.9,4.6-6,4.5-13.4Z" fill="#2c7a48"/><path d="M17.9,26.9c0-.9-.4-1.7-1-1.7h-.1c-.5.1-.9.9-.9,1.7l-.3,8.5c0,.6-.4,1-.8,1s-.8-.5-.8-1l-.2-9.8c0-.7-.2-1.2-.6-1.5l-.1-.1h-.1-.1-.1-.1-.1-.1l-.1.1c-.3.3-.6.9-.6,1.5l-.2,9.8c0,.6-.4,1-.8,1s-.8-.5-.8-1L9.7,27c0-.9-.4-1.7-.9-1.7h-.1c-.5,0-1,.7-1,1.7l-.3,9.6v3.2c0,2,1,3.6,2.3,4.2.5.3.9.5,1.2,1.2.2.6.3,1.1.3,1.7l-.5,24.8c0,2.4.9,4.4,2,4.4h.2c1.1,0,2-2,2-4.4c0-4.5-.5-24.8-.5-24.8c0-.6.1-1.2.3-1.7.3-.7.7-.9,1.2-1.2c1.3-.6,2.3-2.3,2.3-4.2v-3.2l-.3-9.7Z" fill="#2c7a48"/><circle r="28.4" transform="translate(50.7 50)" fill="#2c7a48"/><path d="M66.7,36C70,39.7,72,44.6,72,50c0,11.8-9.5,21.3-21.3,21.3s-21.3-9.5-21.3-21.3s9.5-21.3,21.3-21.3c6.4,0,12.1,2.8,16,7.3" fill="#2c7a48" stroke="#45b56d" stroke-width="2" stroke-miterlimit="10"/></g></svg>
